<svg xmlns="http://www.w3.org/2000/svg" xmlns:xlink="http://www.w3.org/1999/xlink" width="120" height="20" viewBox="0 0 480 80">
  <defs>
    <radialGradient id="a" cx="50%" cy="50%" r="74.309%" fx="50%" fy="50%" gradientTransform="matrix(1 0 0 .9 0 .05)">
      <stop offset="0%" stop-color="#844db8"/>
      <stop offset="100%" stop-color="#5b16a3"/>
    </radialGradient>
    <linearGradient id="c" x1="10.063%" x2="95.86%" y1="94.375%" y2="-.956%">
      <stop offset="0%" stop-color="#7673c0" stop-opacity=".5"/>
      <stop offset="100%" stop-color="#7673c0" stop-opacity="0"/>
    </linearGradient>
    <path id="b" d="M 64.8 0 C 68.8 0 72 3.2 72 7.2 L 72 7.2 L 72 72.8 C 72 76.8 68.8 80 64.8 80 L 64.8 80 L 7.2 80 C 3.2 80 0 76.8 0 72.8 L 0 72.8 L 0 7.2 C 0 3.2 3.2 0 7.2 0 L 7.2 0 Z M 18 52 L 18 68 L 27 60 L 18 52 Z M 26 12 L 18 12 L 18 46.7 L 23.7 44.1 L 23.7 44.1 C 24.6 43.7 33.2 40 41 40 C 45.1 40 46 42.2 46 44.1 L 46 44.1 L 46 68 L 54 68 L 54 43.9 C 54 43.1 53.8 38.9 50.5 35.6 C 48.9 33.9 45.9 32 41 32 C 35.6 32 30 33.4 26 34.7 L 26 34.7 L 26 12 Z M 46 12 L 46 12 L 45.9 12.5 C 45 16.9 43 21 40 25 L 40 25 L 48 25 L 48.4 24.6 C 51.7 20.6 53.5 16.4 54 12 L 54 12 Z"/>
  </defs>
  <defs>
    <radialGradient id="grad1" cx="50%" cy="50%" r="50%" fx="50%" fy="50%">
      <stop offset="0%" style="stop-color: rgb(40, 140, 40); stop-opacity: 0.9" />
      <stop offset="100%" style="stop-color: rgb(40, 140, 40); stop-opacity: 0.95" />
    </radialGradient>
  </defs>
    <rect width="425" height="80" x="55" y="0" rx="15" ry="15" fill="url(#grad1)" >
        </rect>
  <g fill="none">
    <use transform="matrix(1,0,0,1,0,0)" fill="url(#a)" xlink:href="#b"/>
    <use transform="matrix(1,0,0,1,0,0)" fill="url(#c)" xlink:href="#b"/>
  </g>
    <text transform="scale(0.1)" font-family="'DejaVu Sans', Verdana, Geneva, sans-serif" font-size="450" textLength="3600" x="880" y="580" fill="rgb(0, 0, 0)" fill-opacity="0.5">
        Run Heroku App
    </text>
    <text transform="scale(0.1)" font-family="'DejaVu Sans', Verdana, Geneva, sans-serif" font-size="450" textLength="3600" x="880" y="540" fill="rgb(255, 255, 255)">
        Run Heroku App
    </text>
</svg>
